<?xml version="1.0" encoding="UTF-8"?>
<svg version="1.1" xmlns="http://www.w3.org/2000/svg" width="32" height="32">
<path d="M0 0 C10.56 0 21.12 0 32 0 C32 10.56 32 21.12 32 32 C21.44 32 10.88 32 0 32 C0 21.44 0 10.88 0 0 Z " fill="#111111" transform="translate(0,0)"/>
<path d="M0 0 C1.1859375 0.00257813 2.371875 0.00515625 3.59375 0.0078125 C4.7796875 0.00523437 5.965625 0.00265625 7.1875 0 C10.09375 0.1328125 10.09375 0.1328125 11.09375 1.1328125 C11.67786619 6.21749608 11.66124559 10.07348739 9.21875 14.6328125 C7.09375 17.1328125 7.09375 17.1328125 5.09375 19.1328125 C3.21875 19.0703125 3.21875 19.0703125 1.09375 18.1328125 C-2.6279219 13.98580666 -4.0471346 11.5902121 -4.03125 6.0703125 C-4.03382813 5.17183594 -4.03640625 4.27335938 -4.0390625 3.34765625 C-3.83587201 -0.04084401 -3.45071501 0.15769397 0 0 Z " fill="#5B5B5B" transform="translate(11.90625,6.8671875)"/>
<path d="M0 0 C1.65 0.33 3.3 0.66 5 1 C5.46753711 7.57149385 5.46809228 11.74342084 1 17 C0.34 17.66 -0.32 18.32 -1 19 C-3.125 18.625 -3.125 18.625 -5 18 C-4.979375 17.05125 -4.95875 16.1025 -4.9375 15.125 C-4.77448174 12.09333717 -4.77448174 12.09333717 -6 10 C-5.01 10 -4.02 10 -3 10 C-3 9.01 -3 8.02 -3 7 C-3.66 7 -4.32 7 -5 7 C-5 7.66 -5 8.32 -5 9 C-6.32 8.67 -7.64 8.34 -9 8 C-9 6.02 -9 4.04 -9 2 C-5.535 1.505 -5.535 1.505 -2 1 C-1.67 5.62 -1.34 10.24 -1 15 C1.87680265 10.41700917 1.87680265 10.41700917 2.6875 5.6875 C2.790625 4.470625 2.89375 3.25375 3 2 C2.01 2 1.02 2 0 2 C0 1.34 0 0.68 0 0 Z " fill="#3F3F3F" transform="translate(18,7)"/>
<path d="M0 0 C1.65 0 3.3 0 5 0 C5.42927453 6.22448068 4.99400188 9.15878559 1 14 C0.67 14 0.34 14 0 14 C0 9.38 0 4.76 0 0 Z " fill="#656566" transform="translate(16,9)"/>
</svg>
